<svg xmlns="http://www.w3.org/2000/svg" xmlns:xlink="http://www.w3.org/1999/xlink" viewBox="0,0,256,256" width="150px" height="150px" fill-rule="nonzero"><g fill="#ffffff" fill-rule="nonzero" stroke="none" stroke-width="1" stroke-linecap="butt" stroke-linejoin="miter" stroke-miterlimit="10" stroke-dasharray="" stroke-dashoffset="0" font-family="none" font-weight="none" font-size="none" text-anchor="none" style="mix-blend-mode: normal"><g transform="scale(5.12,5.12)"><path d="M34.90234,2c-2.03906,0 -3.80469,0.55078 -5.02734,1.09375c-1.19922,-0.40234 -3.1875,-1.08984 -5.57422,-0.59375c-1.39062,0.24219 -2.66797,0.81641 -3.83984,1.69531c-1.92969,-0.92969 -3.94531,-1.5 -6.05859,-1.59375c-1.30078,-0.10156 -6.60156,0.5 -8.50391,3.29687c-0.69922,1.10156 -1.39844,2.5 -1.69922,4.19922c-0.30078,1.5 -0.30078,3.20313 0.19922,6.70313c0.30078,2.39844 0.70313,4 1.60156,7.29688c0.10156,0.30078 0.60156,1.90234 2.10156,6.30469c0.29688,0.79688 0.89844,2.29688 2.09766,3.69531c0.80078,1 1.60156,1.60156 2.60156,1.60156c1.30078,0 2.19922,-0.89844 3,-1.89844c0.05859,-0.06641 0.12109,-0.14062 0.17969,-0.20703c-0.07422,0.11719 -0.14062,0.24609 -0.17969,0.40625c-0.19922,1 1,1.80078 2,2.19922c0.80078,0.39844 1.69922,0.5 2.39844,0.5c0.89844,0 1.60156,-0.19922 2,-0.29687c0.34375,-0.11719 1.08594,-0.4375 1.87891,-0.96484c0.03516,2.55469 0.05859,5.57031 0.12109,6.26172c0.30078,2.60156 1,4.39844 2.30078,5.39844c1,0.80078 2.80078,0.90234 2.90234,0.90234c1.79688,0 4.59766,-1.19922 5.79688,-3.09766c0.60156,-0.90234 0.80078,-1.70312 1,-2.80469c0.19922,-0.59766 0.39844,-4.09766 0.5,-4.79687c0.13672,-1.10547 0.24219,-2.19531 0.34766,-3.25391c0.66016,0.17188 1.47266,0.35547 2.35547,0.35547c1.59766,0 3.69922,-1.10156 4.09766,-1.30469c0.80078,-0.59766 2.39844,-1.99609 1.69922,-3.19531c-0.39844,-0.70312 -1,-0.70312 -2.5,-0.5c0,0 -2.39844,0.29688 -2.60156,0.19531c-0.14453,-0.05469 -0.36719,-0.19531 -0.61719,-0.37891c0.51953,-0.80469 0.98047,-1.60156 1.51953,-2.31641c1.19922,-2.30078 1.90234,-4.10156 2.40234,-5.5c0.89844,-2.5 1.39844,-4.50391 1.69531,-5.90234c0.70313,-3 0.90234,-4.39844 0.5,-6c-0.79687,-2.80078 -3.69922,-5.19922 -4.89844,-5.89844c-0.80078,-0.40234 -2.79687,-1.60156 -5.79687,-1.60156zM34.90234,4c2.5,0 4.19922,1 5.09766,1.39844c1.10156,0.60156 3.60156,2.60156 3.80078,4.5c0.10156,1.10156 0.19922,2.20313 -0.5,5.10156c-0.39844,1.39844 -0.80078,3.19922 -1.70312,5.69922c-0.5,1.39844 -1.09766,3.10156 -2.29687,5.20313c-0.03125,0.05078 -0.06641,0.10547 -0.09766,0.16016c0.11719,-0.42187 0.19922,-0.76172 0.19922,-0.76172c0.19922,-1 0.19922,-1.80078 0.09766,-3c-0.10156,-0.60156 -0.19922,-2.10156 -0.19922,-2.70312c0,-0.29687 0.29688,-3.39844 0.39844,-4.5c0.10156,-1.79687 -1,-4 -1.29687,-4.39844c-1.5,-2.30078 -2.30078,-3.59766 -3.90234,-4.89844c-0.39844,-0.33984 -1.08203,-0.90625 -2.01172,-1.47656c0.73438,-0.17969 1.54688,-0.32422 2.41406,-0.32422zM26.06641,4.41016c1.30469,0.03125 2.41016,0.39063 3.23438,0.69141c2.10156,0.69922 3.39844,1.79688 4,2.29688c1.30078,1.10156 2,2.20313 3.5,4.50391c0.10938,0.21875 0.39453,0.68359 0.62109,1.33203c-2.04687,-0.1875 -3.40625,0.53125 -4.22266,1.26563c-1.19922,1 -1.10156,2.5 -1,3.59766c0,0.80078 0.20313,1.80469 1.70313,5.20313c0.59766,1.5 1.19531,3.09766 1.79688,4.19922c0.3125,0.62109 0.69531,1.19141 1.10547,1.69922c-0.23828,0.12109 -0.48047,0.27734 -0.70703,0.5c-0.59766,0.69922 -0.69922,1.40234 -0.89844,2.70313c-0.19922,1 -0.39844,3.09766 -0.5,4.79688c0,0.69922 -0.29687,4.10156 -0.39844,4.60156c-0.30078,1 -0.40234,1.5 -0.80078,2.10156c-0.69922,1.09766 -2.89844,2 -4.19922,1.89844c-0.39844,0 -1,0 -1.5,-0.39844c-1.10156,-0.80078 -1.5,-2.60156 -1.60156,-4c-0.10156,-1 0,-8.20312 -0.19922,-9.80469c-0.10156,-0.39844 -0.19922,-1.39844 -1,-2.09766c-0.33594,-0.28125 -1.03125,-0.42578 -1.6875,-0.52344c0.00781,-0.33594 0.02734,-0.67187 0.08984,-0.97656c0.09766,-0.60156 0.29688,-0.90234 0.5,-1.40234c0.09766,-0.29687 0.29688,-0.69531 0.5,-1.19531c0.89844,-2.80078 0.69531,-6.50391 0.19531,-8.80469c-0.09766,-0.19922 -0.5,-1.79687 -1.89844,-2.69531c-1.5,-0.90234 -3.10156,-0.40234 -4,-0.10156c-0.37109,0.10156 -0.73828,0.26172 -1.10547,0.44922c0.0625,-0.41797 0.11719,-0.83984 0.20703,-1.25c0.39844,-2 0.80078,-3.69922 2.10156,-5.39844c1.39844,-1.70312 2.99609,-2.80078 4.79688,-3.10156c0.47656,-0.07422 0.93359,-0.10156 1.36719,-0.08984zM13.71875,4.58594c0.23438,-0.00391 0.43359,0 0.58203,0.01563c1.5625,0.08203 3.05859,0.44922 4.54297,1.07422c-0.18359,0.20313 -0.36719,0.40625 -0.54297,0.625c-1.69922,2 -2.10156,4.09766 -2.5,6.19922c-0.5,2.5 -0.60156,5.09766 -0.20312,7.69922l-0.19531,1.89844c-0.10156,1 -0.30469,2.90234 0.79688,4.90234c0.38672,0.66406 0.8125,1.22656 1.28125,1.70703c-1.01562,1.34375 -2.09375,2.61328 -3.17969,3.79297c-0.60156,0.69922 -1.10156,1.19922 -1.5,1.19922c-0.10156,0 -0.5,-0.19922 -1.10156,-0.89844c-1.10156,-1.19922 -1.5,-2.5 -1.69922,-3c-1.19922,-3.60156 -1.89844,-5.90234 -2,-6.20312c-0.80078,-3.19922 -1.19922,-4.79687 -1.60156,-7.09766c-0.5,-3.19922 -0.5,-4.80078 -0.19922,-6.09766c0.30078,-1.40234 0.80078,-2.50391 1.30078,-3.30078c1.22656,-1.92578 4.59375,-2.47266 6.21875,-2.51562zM36.66406,15.125c0.32031,0 0.66797,0.03906 1.03516,0.11719c-0.01172,0.93359 -0.39844,3.86328 -0.39844,4.25781c0,0.80078 0.19922,2.39844 0.19922,3c0.10156,1.10156 0.10156,1.69922 0,2.5c0,0 -0.14844,0.71484 -0.30078,1.22266c-0.46484,-1.05078 -0.98047,-2.30469 -1.60156,-3.72266c-1.5,-3.39844 -1.59766,-4.09766 -1.59766,-4.59766c0,-0.70312 0,-1.60156 0.59766,-2c0.5625,-0.5 1.24609,-0.76953 2.06641,-0.77734zM21.14063,15.41797c0.19922,0.02344 0.38281,0.08203 0.55859,0.17969c0.80078,0.40234 1,1.40234 1,1.40234c0.5,2.19922 0.69922,5.5 -0.10156,7.69922c-0.09766,0.39844 -0.29687,0.69922 -0.39844,1c-0.19922,0.5 -0.39844,1 -0.60156,1.89844c-0.05078,0.37109 -0.07422,0.73828 -0.08594,1.10547c-0.69141,-0.14453 -1.34375,-0.39062 -1.8125,-0.70312c-0.80078,-0.39844 -1.39844,-1.10156 -1.79687,-1.90234c-0.70312,-1.5 -0.60156,-2.89844 -0.5,-3.69531l0.19531,-2.30469c-0.14062,-1.125 -0.20703,-2.25391 -0.19141,-3.375c0.46094,-0.39453 1.0625,-0.79687 1.89453,-1.02344c0.60156,-0.14844 1.25781,-0.35547 1.83984,-0.28125zM35.88672,16.08984c-0.26172,0.01172 -0.53906,0.05859 -0.6875,0.10938c-0.39844,0.10156 -0.5,0.10156 -0.60156,0.30078c-0.09766,0.19922 0.20313,0.5 0.30469,0.69922c0.09766,0 0.39844,0.30078 0.79688,0.20313c0.30078,-0.10156 0.5,-0.30078 0.60156,-0.40234c0.10156,-0.10156 0.5,-0.60156 0.19922,-0.80078c-0.10156,-0.10156 -0.35156,-0.125 -0.61328,-0.10937zM20.91406,16.81641c-0.10937,0.00781 -0.21484,0.03516 -0.31641,0.08594c-0.09766,0 -0.29687,0.09766 -0.39844,0.29688c-0.10156,0.19922 0,0.39844 0.10156,0.5c0.19922,0.30078 0.5,0.60156 1,0.60156c0.10156,0 0.5,0 0.79688,-0.30078c0,0 0.30469,-0.30078 0.30469,-0.59766c-0.10156,-0.20312 -0.30078,-0.30078 -0.60156,-0.40234c-0.22656,-0.07422 -0.5625,-0.20703 -0.88672,-0.18359zM19.07422,29.90234c0.61328,0.32813 1.35156,0.59375 2.16016,0.77734c-0.21484,0.42969 -0.52344,0.78516 -0.83203,1.01953c-0.70312,0.5 -1.60156,0.80078 -2.5,1c-0.20312,0 -0.30078,0.10156 -0.5,0.10156c-0.48437,0.13672 -0.95312,0.28906 -1.27344,0.62109c0.98047,-1.08984 1.96484,-2.29297 2.94531,-3.51953zM38.35547,30.70313c0.4375,0.32813 0.86719,0.57031 1.24219,0.69922c0.60156,0.19922 1.10156,0.19922 2.90234,0c-0.30078,0.29688 -1.19922,0.79688 -2.5,1c-0.83594,0.08203 -1.875,-0.11719 -2.71875,-0.35937c0.07813,-0.56641 0.16797,-0.89062 0.31641,-1.04297c0.05469,-0.05078 0.38672,-0.15234 0.75781,-0.29687zM23.29688,31.00391c0.20703,0.03516 0.37109,0.0625 0.40234,0.09375c0.19922,0.20313 0.30078,0.70313 0.30078,0.90234c0.01172,0.17188 0.01953,0.60547 0.02734,0.90625c-0.82422,0.96484 -2.14844,1.5 -2.42969,1.59375c-0.39844,0.19922 -1.59766,0.39844 -2.79687,0c1,-0.30078 2,-0.59766 2.79688,-1.19922c0.69922,-0.5 1.30078,-1.29687 1.69922,-2.29687z"></path></g></g></svg>