<svg xmlns="http://www.w3.org/2000/svg" xmlns:xlink="http://www.w3.org/1999/xlink" viewBox="0,0,256,256" width="192px" height="192px" fill-rule="nonzero"><g fill="#ffffff" fill-rule="nonzero" stroke="none" stroke-width="1" stroke-linecap="butt" stroke-linejoin="miter" stroke-miterlimit="10" stroke-dasharray="" stroke-dashoffset="0" font-family="none" font-weight="none" font-size="none" text-anchor="none" style="mix-blend-mode: normal"><g transform="scale(10.66667,10.66667)"><path d="M18,13c-1.858,0 -3.489,-1.297 -5.748,-3.092c-1.521,-1.209 -5.006,-1.619 -5.552,-1.194l-1.407,-1.421c2.053,-2.054 3.293,-3.293 5.707,-3.293c3.018,0 5.214,1.688 6.979,3.046c0.554,0.425 1.077,0.827 1.527,1.092c0.342,0.201 1.073,0.436 1.685,0.253c0.391,-0.115 0.689,-0.39 0.914,-0.838l1.834,0.789c-1.06,2.917 -3.28,4.658 -5.939,4.658zM8.983,6.633c1.707,0.234 3.512,0.913 4.514,1.709c2.135,1.698 3.397,2.658 4.503,2.658c0.745,0 1.435,-0.207 2.042,-0.599c-0.611,-0.097 -1.158,-0.31 -1.548,-0.539c-0.557,-0.328 -1.128,-0.767 -1.732,-1.231c-1.606,-1.234 -3.425,-2.631 -5.762,-2.631c-0.786,0 -1.359,0.176 -2.017,0.633zM13,20c-1.858,0 -3.489,-1.297 -5.748,-3.092c-1.52,-1.208 -5.006,-1.621 -5.552,-1.194l-1.407,-1.421c2.053,-2.054 3.293,-3.293 5.707,-3.293c3.018,0 5.214,1.688 6.979,3.046c0.554,0.425 1.077,0.827 1.527,1.092c0.342,0.201 1.073,0.433 1.685,0.253c0.391,-0.115 0.689,-0.39 0.914,-0.838l1.834,0.789c-1.06,2.917 -3.28,4.658 -5.939,4.658zM3.983,13.633c1.707,0.234 3.512,0.913 4.514,1.709c2.135,1.698 3.397,2.658 4.503,2.658c0.745,0 1.435,-0.207 2.042,-0.599c-0.611,-0.097 -1.158,-0.31 -1.548,-0.539c-0.557,-0.328 -1.128,-0.767 -1.732,-1.231c-1.606,-1.234 -3.425,-2.631 -5.762,-2.631c-0.786,0 -1.359,0.176 -2.017,0.633z"></path></g></g></svg>